HIERARCHY
ROOT Hips
{
	OFFSET	0.00	0.00	0.00
	CHANNELS 6 Xposition Yposition Zposition Zrotation Xrotation Yrotation
	JOINT LeftUpLeg
	{
		OFFSET	 0.126116	-0.014019	-0.065224
		CHANNELS 3 Zrotation Xrotation Yrotation
		JOINT LeftLeg
		{
			OFFSET	 0.000000	 0.000000	 0.569914
			CHANNELS 3 Zrotation Xrotation Yrotation
			JOINT LeftFoot
			{
				OFFSET	 0.000000	 0.000000	 0.544423
				CHANNELS 3 Zrotation Xrotation Yrotation
				JOINT LeftToeBase
				{
					OFFSET	 0.000000	 0.000000	 0.207117
					CHANNELS 3 Zrotation Xrotation Yrotation
					End Site
					{
						OFFSET	 0.000000	 0.000000	 0.207117
					}
				}
			}
		}
	}
	JOINT RightUpLeg
	{
		OFFSET	-0.124023	-0.008373	-0.065224
		CHANNELS 3 Zrotation Xrotation Yrotation
		JOINT RightLeg
		{
			OFFSET	 0.000000	 0.000000	 0.570047
			CHANNELS 3 Zrotation Xrotation Yrotation
			JOINT RightFoot
			{
				OFFSET	 0.000000	 0.000000	 0.544354
				CHANNELS 3 Zrotation Xrotation Yrotation
				JOINT RightToeBase
				{
					OFFSET	 0.000000	 0.000000	 0.207540
					CHANNELS 3 Zrotation Xrotation Yrotation
					End Site
					{
						OFFSET	 0.000000	 0.000000	 0.207540
					}
				}
			}
		}
	}
	JOINT Spine
	{
		OFFSET	 0.000184	-0.007763	 0.117403
		CHANNELS 3 Zrotation Xrotation Yrotation
		JOINT Spine1
		{
			OFFSET	 0.000000	 0.000000	 0.137269
			CHANNELS 3 Zrotation Xrotation Yrotation
			JOINT Spine2
			{
				OFFSET	 0.000000	 0.000000	 0.156879
				CHANNELS 3 Zrotation Xrotation Yrotation
				JOINT LeftShoulder
				{
					OFFSET	 0.080501	-0.002496	 0.160144
					CHANNELS 3 Zrotation Xrotation Yrotation
					JOINT LeftArm
					{
						OFFSET	 0.000000	 0.000000	 0.164363
						CHANNELS 3 Zrotation Xrotation Yrotation
						JOINT LeftForeArm
						{
							OFFSET	 0.000000	 0.000000	 0.364576
							CHANNELS 3 Zrotation Xrotation Yrotation
							JOINT LeftHand
							{
								OFFSET	 0.000000	 0.000000	 0.360812
								CHANNELS 3 Zrotation Xrotation Yrotation
								JOINT LeftHandIndex1
								{
									OFFSET	 0.000000	 0.000000	 0.086006
									CHANNELS 3 Zrotation Xrotation Yrotation
									JOINT LeftHandIndex2
									{
										OFFSET	 0.000000	 0.000000	 0.047236
										CHANNELS 3 Zrotation Xrotation Yrotation
										JOINT LeftHandIndex3
										{
											OFFSET	-0.004284	-0.000551	 0.038166
											CHANNELS 3 Zrotation Xrotation Yrotation
											End Site
											{
												OFFSET	-0.004284	-0.000551	 0.038166
											}
										}
									}
								}
							}
						}
					}
				}
				JOINT Neck
				{
					OFFSET	 0.000000	 0.000000	 0.176489
					CHANNELS 3 Zrotation Xrotation Yrotation
					JOINT Head
					{
						OFFSET	 0.000000	-0.001747	 0.077940
						CHANNELS 3 Zrotation Xrotation Yrotation
						End Site
						{
							OFFSET	 0.000000	-0.001747	 0.077940
						}
					}
				}
				JOINT RightShoulder
				{
					OFFSET	-0.080363	 0.000306	 0.159706
					CHANNELS 3 Zrotation Xrotation Yrotation
					JOINT RightArm
					{
						OFFSET	 0.000000	 0.000000	 0.164196
						CHANNELS 3 Zrotation Xrotation Yrotation
						JOINT RightForeArm
						{
							OFFSET	 0.000000	 0.000000	 0.365611
							CHANNELS 3 Zrotation Xrotation Yrotation
							JOINT RightHand
							{
								OFFSET	 0.000000	 0.000000	 0.360648
								CHANNELS 3 Zrotation Xrotation Yrotation
								JOINT RightHandIndex1
								{
									OFFSET	 0.000000	 0.000000	 0.069977
									CHANNELS 3 Zrotation Xrotation Yrotation
									JOINT RightHandIndex2
									{
										OFFSET	 0.000000	 0.000000	 0.052305
										CHANNELS 3 Zrotation Xrotation Yrotation
										JOINT RightHandIndex3
										{
											OFFSET	 0.009002	-0.000782	 0.042196
											CHANNELS 3 Zrotation Xrotation Yrotation
											End Site
											{
												OFFSET	 0.009002	-0.000782	 0.042196
											}
										}
									}
								}
							}
						}
					}
				}
			}
		}
	}
}
MOTION
Frames:    4
Frame Time: 0.03333334
 0.000017	 0.033647	 1.222354	-0.005428	 0.005364	 0.110251	-6.408331	-13.420690	 179.352100	 0.760392	-36.145320	-2.408280	-24.385480	 83.172550	 18.569290	-2.385833	 28.452760	 0.000004	 6.283446	-14.212060	-179.462800	-0.752446	-36.295020	 2.376989	 22.610830	 82.664500	-16.967030	 2.384658	 28.388730	 0.000004	-2.829257	 3.501053	 0.273110	-1.338080	 0.948805	-0.626631	 4.048574	-1.137862	 0.732278	-91.776180	 78.527470	 180.000000	 61.460740	 42.765470	-45.287780	-7.888701	 3.576088	-8.970369	-28.505570	 3.346797	-4.256336	-2.635965	 4.993658	 6.788941	-5.165319	 0.784187	 3.516649	-5.225038	 0.466231	 0.424329	-0.000002	-3.783157	-0.089647	 4.016269	 6.514895	-0.228691	 89.782150	 78.203920	 179.999900	 8.487689	 13.364610	 91.118020	-33.857840	-3.928303	 11.778870	 3.833101	 2.851145	-6.106138	 6.112037	 4.509576	-0.364401	 4.968462	 1.518543	-9.347576	 5.168945	 0.703820	 2.021906
 0.000046	 0.034761	 1.222957	-0.004902	 0.004642	 0.121707	-6.410636	-13.343760	 179.334200	 0.769972	-35.960470	-2.391999	-23.965080	 83.074820	 18.145950	-2.385833	 28.452760	 0.000004	 6.282696	-14.181890	-179.461000	-0.762151	-36.105780	 2.360559	 22.151300	 82.517620	-16.507460	 2.384658	 28.388730	 0.000004	-3.244715	 3.416278	 0.300304	-1.545286	 1.244774	-0.705185	 4.675236	-1.491110	 0.861346	-91.776240	 78.527470	-180.000000	 61.514240	 42.764480	-45.067630	-7.875999	 3.656369	-9.174007	-28.502420	 3.347204	-4.255804	-2.635965	 4.993658	 6.788941	-5.165319	 0.784187	 3.516649	-5.225038	 0.466231	 0.424329	-0.000002	-3.783157	-0.089647	 4.630275	 6.284418	-0.254339	 89.782090	 78.203890	 180.000000	 8.362915	 13.568650	 91.087680	-34.012200	-3.976445	 11.814470	 3.847906	 2.725796	-6.173069	 6.112037	 4.509576	-0.364401	 4.968462	 1.518543	-9.347576	 5.168945	 0.703820	 2.021906
 0.000066	 0.035849	 1.223550	-0.004069	 0.003613	 0.130382	-6.412529	-13.266520	 179.319200	 0.779474	-35.775630	-2.375790	-23.557460	 82.977030	 17.735400	-2.385833	 28.452760	 0.000004	 6.282129	-14.150650	-179.457000	-0.771656	-35.918610	 2.344392	 21.713860	 82.372730	-16.069830	 2.384658	 28.388730	 0.000004	-3.596814	 3.323926	 0.321147	-1.721256	 1.568202	-0.763935	 5.207417	-1.880622	 0.979103	-91.776210	 78.527450	-180.000000	 61.625030	 42.754860	-44.895750	-7.863729	 3.730893	-9.363224	-28.510240	 3.346220	-4.257123	-2.635965	 4.993658	 6.788941	-5.165319	 0.784187	 3.516649	-5.225038	 0.466231	 0.424329	-0.000002	-3.783157	-0.089647	 5.147199	 6.039700	-0.271737	 89.782090	 78.203900	-180.000000	 8.240245	 13.819410	 91.063960	-34.183630	-4.028758	 11.849900	 3.896323	 2.622217	-6.237886	 6.112037	 4.509576	-0.364401	 4.968462	 1.518543	-9.347576	 5.168945	 0.703820	 2.021906
 0.000089	 0.036854	 1.224095	-0.003558	 0.003006	 0.138126	-6.413939	-13.195630	 179.305600	 0.788165	-35.604930	-2.360889	-23.190520	 82.886330	 17.365730	-2.385833	 28.452760	 0.000004	 6.281936	-14.122400	-179.452900	-0.780363	-35.745580	 2.329516	 21.323380	 82.238160	-15.679180	 2.384658	 28.388730	 0.000004	-3.872993	 3.230619	 0.333402	-1.859529	 1.894068	-0.803840	 5.626420	-2.276731	 1.080370	-91.776120	 78.527470	 180.000000	 61.793620	 42.754630	-44.808600	-7.853751	 3.790884	-9.515600	-28.527930	 3.343866	-4.259999	-2.635965	 4.993658	 6.788941	-5.165319	 0.784187	 3.516649	-5.225038	 0.466231	 0.424329	-0.000002	-3.783157	-0.089647	 5.549665	 5.800648	-0.281397	 89.782100	 78.203870	 180.000000	 8.100859	 13.886130	 91.022460	-34.345210	-4.081935	 11.893420	 3.385417	 2.783783	-6.270881	 6.112037	 4.509576	-0.364401	 4.968462	 1.518543	-9.347576	 5.168945	 0.703820	 2.021906
